<svg width="1014" height="614" viewBox="0 0 1014 614" fill="none" xmlns="http://www.w3.org/2000/svg">
<g clip-path="url(#clip0_73_221)">
<rect width="1014" height="614" fill="white"/>
<rect x="335" y="165" width="51.1113" height="382.886" fill="black"/>
<path fill-rule="evenodd" clip-rule="evenodd" d="M548.62 360.718C548.62 437.004 475.899 498.867 386.111 499.048V222.388C475.899 222.57 548.62 284.432 548.62 360.718ZM501.057 361.839C501.057 414.699 449.62 457.565 386.112 457.691V265.988C449.62 266.114 501.057 308.98 501.057 361.839Z" fill="black"/>
<path fill-rule="evenodd" clip-rule="evenodd" d="M413.908 360.478C413.908 375.83 401.463 388.275 386.111 388.275V366.016C386.942 366.379 387.859 366.58 388.823 366.58C392.568 366.58 395.603 363.545 395.603 359.8C395.603 356.056 392.568 353.02 388.823 353.02C387.859 353.02 386.942 353.222 386.111 353.585V332.681C401.463 332.681 413.908 345.126 413.908 360.478Z" fill="black"/>
<rect x="329.381" y="160.173" width="51.1113" height="382.886" fill="#005C83"/>
<path fill-rule="evenodd" clip-rule="evenodd" d="M543.001 355.892C543.001 432.177 470.28 494.04 380.492 494.222V217.562C470.28 217.743 543.001 279.606 543.001 355.892ZM495.438 357.013C495.438 409.872 444.001 452.738 380.492 452.864V261.161C444.001 261.287 495.438 304.153 495.438 357.013Z" fill="#005C83"/>
<path fill-rule="evenodd" clip-rule="evenodd" d="M408.289 355.652C408.289 371.004 395.844 383.449 380.492 383.449V361.189C381.323 361.552 382.24 361.754 383.204 361.754C386.949 361.754 389.984 358.718 389.984 354.974C389.984 351.229 386.949 348.194 383.204 348.194C382.24 348.194 381.323 348.395 380.492 348.758V327.854C395.844 327.854 408.289 340.3 408.289 355.652Z" fill="#005C83"/>
<rect x="324" y="153" width="51.1113" height="382.886" fill="url(#paint0_radial_73_221)" fill-opacity="0.2"/>
<path fill-rule="evenodd" clip-rule="evenodd" d="M537.619 348.718C537.619 425.004 464.898 486.866 375.11 487.048V445.691C438.619 445.565 490.056 402.699 490.056 349.839C490.056 296.98 438.619 254.114 375.11 253.988V210.388C464.898 210.569 537.619 272.432 537.619 348.718Z" fill="url(#paint1_linear_73_221)"/>
<rect x="622.421" y="137.928" width="300.476" height="69.0749" rx="25" transform="rotate(4.80822 622.421 137.928)" fill="black"/>
<rect x="605.229" y="421.135" width="271.982" height="69.0749" rx="25" transform="rotate(15.0658 605.229 421.135)" fill="black"/>
<rect x="561.371" y="450.747" width="454.941" height="69.0749" rx="25" transform="rotate(-41.1657 561.371 450.747)" fill="black"/>
<circle cx="905.451" cy="197.937" r="7.33921" fill="black"/>
<circle cx="606.703" cy="456.968" r="7.33921" fill="black"/>
<rect x="618.05" y="127" width="300.476" height="69.0749" rx="25" transform="rotate(4.80822 618.05 127)" fill="url(#paint2_linear_73_221)"/>
<rect x="600.857" y="410.207" width="271.982" height="69.0749" rx="25" transform="rotate(15.0658 600.857 410.207)" fill="url(#paint3_linear_73_221)"/>
<rect x="557" y="439.819" width="454.941" height="69.0749" rx="25" transform="rotate(-41.1657 557 439.819)" fill="url(#paint4_linear_73_221)"/>
<circle cx="901.079" cy="187.009" r="7.33921" fill="url(#paint5_linear_73_221)"/>
<circle cx="602.33" cy="446.04" r="7.33921" fill="url(#paint6_linear_73_221)"/>
<ellipse cx="147.33" cy="520.054" rx="3.84037" ry="18.0202" transform="rotate(-10.0235 147.33 520.054)" fill="black"/>
<path d="M144.193 502.308L147.102 501.794L153.375 537.285L150.466 537.799L144.193 502.308Z" fill="black"/>
<ellipse cx="150.822" cy="519.437" rx="3.84037" ry="18.0202" transform="rotate(-10.0235 150.822 519.437)" fill="black"/>
<ellipse cx="149.075" cy="519.745" rx="3.84037" ry="18.0202" transform="rotate(-10.0235 149.075 519.745)" fill="black"/>
<path d="M145.939 502L147.685 501.691L153.958 537.182L152.212 537.49L145.939 502Z" fill="black"/>
<ellipse cx="149.773" cy="518.899" rx="1.30426" ry="3.25719" transform="rotate(-8.92555 149.773 518.899)" fill="black"/>
<path d="M434.186 54.7522C439.93 52.5293 443.83 60.6349 438.508 63.7354L404.048 83.8124C401.528 85.281 398.29 84.2886 397.026 81.6598L394.292 75.9771C393.027 73.3482 394.272 70.1994 396.993 69.1465L434.186 54.7522Z" fill="url(#paint7_linear_73_221)"/>
<path d="M403.933 86.038C414.427 79.7913 406.704 63.7728 395.281 68.0917L378.324 74.5032L256.045 135.125L164.301 165.706C163.438 165.994 163.028 166.978 163.432 167.794V167.794C164.27 169.484 163.721 171.533 162.15 172.578L142.289 185.785C139.661 187.532 138.836 191.017 140.402 193.757L150.07 210.683C154.208 217.926 163.46 220.402 170.662 216.194L180.486 210.454C182.204 209.45 184.412 210.111 185.295 211.893V211.893C186.184 213.685 188.409 214.342 190.128 213.319L403.933 86.038Z" fill="black"/>
<path d="M165.828 550.272C165.791 556.43 156.821 557.088 155.886 551L149.834 511.58C149.392 508.697 151.501 506.048 154.411 505.835L160.7 505.374C163.61 505.161 166.083 507.473 166.066 510.39L165.828 550.272Z" fill="black"/>
<path fill-rule="evenodd" clip-rule="evenodd" d="M147.007 503.994C148.987 516.045 166.72 514.709 166.873 502.498L170 253.695C170.025 251.695 168.343 250.096 166.347 250.225C164.362 250.352 162.684 248.772 162.693 246.783L162.743 235.405C162.779 227.063 156.003 220.294 147.662 220.339L128.17 220.444C125.014 220.461 122.411 222.92 122.214 226.07L120.725 249.875C120.608 251.757 119.109 253.259 117.226 253.38C116.318 253.438 115.671 254.286 115.854 255.177L135.318 349.905L144.066 486.105L147.007 503.994Z" fill="black"/>
<path d="M173.915 199.721C186.176 221.228 168.58 247.492 144.026 244.334L83.6116 236.565C65.1927 234.196 55.6945 213.282 66.0307 197.854L101.258 145.272C111.594 129.843 134.549 130.671 143.746 146.804L173.915 199.721Z" fill="black"/>
<path d="M121.202 156.815L128.901 156.738L134.697 162.403L135.194 170.493L130.102 176.268L122.403 176.345L116.607 170.679L116.11 162.59L121.202 156.815Z" fill="black"/>
<path d="M124.484 159.732L129.303 160.959L131.983 165.456L130.953 170.588L126.818 173.35L121.999 172.123L119.319 167.627L120.349 162.494L124.484 159.732Z" fill="black"/>
<path d="M126.909 162.649L129.1 164.615L129.272 167.71L127.323 170.12L124.395 170.434L122.203 168.467L122.032 165.372L123.981 162.962L126.909 162.649Z" fill="black"/>
<path d="M93.9715 202.967L101.671 202.89L107.466 208.556L107.964 216.645L102.871 222.42L95.1724 222.497L89.3767 216.832L88.8793 208.742L93.9715 202.967Z" fill="black"/>
<path d="M97.1646 205.804L101.984 207.031L104.663 211.527L103.634 216.66L99.4988 219.422L94.6799 218.195L92.0001 213.698L93.0293 208.566L97.1646 205.804Z" fill="black"/>
<path d="M99.5896 208.72L101.781 210.687L101.952 213.782L100.003 216.192L97.0755 216.506L94.8841 214.539L94.7127 211.444L96.6618 209.034L99.5896 208.72Z" fill="black"/>
<path d="M95.534 170.707C100.731 174.19 102.122 181.227 98.6389 186.424V186.424C95.1562 191.622 88.1195 193.012 82.922 189.529L59.8016 174.037C57.9983 172.829 56.5166 171.164 55.5145 169.239V169.239C53.1728 164.739 48.3669 161.99 43.3048 162.315V162.315C39.9517 162.531 36.6483 161.42 34.1069 159.222L30.5907 156.181C25.5557 151.826 24.557 144.402 28.2625 138.871V138.871C31.8084 133.58 38.6309 131.58 44.4722 134.121L47.7183 135.533C51.3064 137.094 54.0525 140.119 55.26 143.841L55.6215 144.955C57.1499 149.666 61.4253 152.946 66.3712 153.203V153.203C68.5269 153.314 70.6121 154.008 72.4053 155.21L95.534 170.707Z" fill="black"/>
<path fill-rule="evenodd" clip-rule="evenodd" d="M58.2682 142.699L58.5599 143.617C60.061 148.343 64.3395 151.639 69.2917 151.885C70.0594 151.923 70.8182 152.035 71.5581 152.219L71.7828 152.38L59.6126 169.905L59.3398 169.733C58.9545 169.201 58.6092 168.639 58.3083 168.053C55.9863 163.53 51.1724 160.772 46.0991 161.111C45.9792 161.119 45.8594 161.125 45.7396 161.13L58.1297 142.6L58.2682 142.699Z" fill="black"/>
<ellipse cx="142.469" cy="515.63" rx="3.84037" ry="18.0202" transform="rotate(-10.0235 142.469 515.63)" fill="#BEBFBF"/>
<path d="M139.332 497.884L142.241 497.37L148.514 532.861L145.605 533.375L139.332 497.884Z" fill="#BEBFBF"/>
<ellipse cx="145.959" cy="515.013" rx="3.84037" ry="18.0202" transform="rotate(-10.0235 145.959 515.013)" fill="#7D888A"/>
<ellipse cx="144.214" cy="515.321" rx="3.84037" ry="18.0202" transform="rotate(-10.0235 144.214 515.321)" fill="#7D888A"/>
<path d="M141.077 497.576L142.823 497.267L149.095 532.758L147.35 533.066L141.077 497.576Z" fill="#7D888A"/>
<ellipse cx="144.913" cy="514.475" rx="1.30426" ry="3.25719" transform="rotate(-8.92555 144.913 514.475)" fill="black"/>
<path d="M429.326 50.328C435.07 48.1051 438.969 56.2108 433.648 59.3112L399.188 79.3882C396.667 80.8568 393.43 79.8644 392.165 77.2356L389.431 71.5529C388.167 68.924 389.412 65.7752 392.133 64.7223L429.326 50.328Z" fill="url(#paint8_linear_73_221)"/>
<path d="M399.073 81.6137C409.566 75.3669 401.844 59.3485 390.421 63.6673L373.463 70.0789L251.185 130.7L159.441 161.282C158.577 161.57 158.168 162.554 158.572 163.369V163.369C159.41 165.059 158.86 167.109 157.29 168.153L137.429 181.361C134.801 183.108 133.976 186.593 135.541 189.333L145.21 206.258C149.348 213.501 158.599 215.977 165.802 211.769L175.626 206.029C177.343 205.026 179.551 205.687 180.435 207.469V207.469C181.323 209.261 183.549 209.917 185.268 208.894L399.073 81.6137Z" fill="url(#paint9_linear_73_221)"/>
<path d="M160.968 545.847C160.931 552.006 151.96 552.664 151.026 546.576L144.974 507.156C144.531 504.273 146.641 501.624 149.551 501.411L155.84 500.95C158.749 500.736 161.223 503.049 161.205 505.966L160.968 545.847Z" fill="url(#paint10_linear_73_221)"/>
<path fill-rule="evenodd" clip-rule="evenodd" d="M142.147 499.57C144.128 511.62 161.861 510.285 162.014 498.074L165.141 249.27C165.166 247.27 163.483 245.672 161.487 245.8C159.502 245.928 157.825 244.348 157.833 242.359L157.883 230.98C157.92 222.639 151.144 215.87 142.803 215.915L123.311 216.02C120.155 216.037 117.552 218.496 117.355 221.646L115.866 245.45C115.748 247.333 114.249 248.835 112.367 248.956C111.459 249.014 110.812 249.861 110.995 250.753L130.458 345.481L139.207 481.681L142.147 499.57Z" fill="url(#paint11_linear_73_221)"/>
<path d="M169.053 195.296C181.315 216.803 163.719 243.067 139.165 239.91L78.7503 232.14C60.3314 229.772 50.8332 208.858 61.1693 193.43L96.3968 140.847C106.733 125.419 129.687 126.247 138.885 142.38L169.053 195.296Z" fill="url(#paint12_linear_73_221)"/>
<path d="M116.343 152.391L124.042 152.313L129.837 157.979L130.335 166.069L125.242 171.844L117.543 171.921L111.748 166.255L111.25 158.165L116.343 152.391Z" fill="#D9D9D9"/>
<path d="M119.625 155.308L124.443 156.535L127.123 161.032L126.094 166.164L121.959 168.926L117.14 167.699L114.46 163.202L115.489 158.07L119.625 155.308Z" fill="#A1A1A1"/>
<path d="M122.05 158.224L124.241 160.191L124.412 163.286L122.463 165.696L119.535 166.01L117.344 164.043L117.173 160.948L119.122 158.538L122.05 158.224Z" fill="#5E5E5E"/>
<path d="M89.1131 198.543L96.8121 198.466L102.608 204.131L103.105 212.221L98.013 217.996L90.314 218.073L84.5183 212.407L84.0209 204.318L89.1131 198.543Z" fill="#D9D9D9"/>
<path d="M92.3062 201.38L97.1251 202.607L99.8049 207.103L98.7757 212.236L94.6404 214.997L89.8215 213.771L87.1417 209.274L88.1709 204.141L92.3062 201.38Z" fill="#A1A1A1"/>
<path d="M94.7312 204.296L96.9226 206.263L97.094 209.358L95.1449 211.768L92.2171 212.082L90.0257 210.115L89.8543 207.02L91.8034 204.61L94.7312 204.296Z" fill="#5E5E5E"/>
<path d="M89.2332 159.361C94.4307 162.844 95.8208 169.881 92.3381 175.078V175.078C88.8554 180.276 81.8187 181.666 76.6212 178.183L53.5008 162.691C51.6976 161.483 50.2158 159.818 49.2137 157.893V157.893C46.872 153.393 42.0661 150.644 37.004 150.969V150.969C33.6509 151.185 30.3475 150.074 27.8061 147.876L24.2899 144.835C19.2549 140.48 18.2562 133.056 21.9617 127.526V127.526C25.5076 122.234 32.3301 120.234 38.1714 122.775L41.4175 124.187C45.0056 125.748 47.7517 128.773 48.9593 132.495L49.3207 133.609C50.8491 138.32 55.1245 141.6 60.0704 141.857V141.857C62.2261 141.968 64.3113 142.662 66.1045 143.864L89.2332 159.361Z" fill="#444444"/>
<path fill-rule="evenodd" clip-rule="evenodd" d="M49.0368 132.543L49.3284 133.462C50.8295 138.187 55.1081 141.483 60.0603 141.729C60.828 141.767 61.5868 141.88 62.3266 142.063L62.5514 142.224L50.3812 159.749L50.1084 159.577C49.723 159.045 49.3777 158.484 49.0769 157.897C46.7548 153.374 41.9409 150.616 36.8677 150.955C36.7478 150.963 36.6279 150.97 36.5082 150.974L48.8982 132.444L49.0368 132.543Z" fill="url(#paint13_linear_73_221)"/>
</g>
<defs>
<radialGradient id="paint0_radial_73_221" cx="0" cy="0" r="1" gradientUnits="userSpaceOnUse" gradientTransform="translate(349.949 344.099) rotate(90.1175) scale(191.787 138.286)">
<stop offset="0.760039" stop-color="#00E0FF"/>
<stop offset="1" stop-color="white"/>
</radialGradient>
<linearGradient id="paint1_linear_73_221" x1="541.979" y1="348.382" x2="375.11" y2="348.382" gradientUnits="userSpaceOnUse">
<stop stop-color="white" stop-opacity="0.49"/>
<stop offset="1" stop-color="#00E0FF" stop-opacity="0.2"/>
</linearGradient>
<linearGradient id="paint2_linear_73_221" x1="768.288" y1="127" x2="768.288" y2="196.075" gradientUnits="userSpaceOnUse">
<stop stop-color="#63E3FF"/>
<stop offset="1" stop-color="#4BBDD7"/>
</linearGradient>
<linearGradient id="paint3_linear_73_221" x1="736.849" y1="410.207" x2="736.849" y2="479.282" gradientUnits="userSpaceOnUse">
<stop stop-color="#637CFF"/>
<stop offset="1" stop-color="#3C4A99"/>
</linearGradient>
<linearGradient id="paint4_linear_73_221" x1="784.471" y1="439.819" x2="784.471" y2="508.894" gradientUnits="userSpaceOnUse">
<stop stop-color="#FFA51E"/>
<stop offset="1" stop-color="#F39A15"/>
</linearGradient>
<linearGradient id="paint5_linear_73_221" x1="901.079" y1="179.67" x2="901.079" y2="194.348" gradientUnits="userSpaceOnUse">
<stop stop-color="#D9D9D9"/>
<stop offset="1" stop-color="#B1B1B1"/>
</linearGradient>
<linearGradient id="paint6_linear_73_221" x1="602.33" y1="438.7" x2="602.33" y2="453.379" gradientUnits="userSpaceOnUse">
<stop stop-color="#D9D9D9"/>
<stop offset="1" stop-color="#B1B1B1"/>
</linearGradient>
<linearGradient id="paint7_linear_73_221" x1="424.19" y1="55.3504" x2="430.053" y2="68.2948" gradientUnits="userSpaceOnUse">
<stop/>
<stop offset="0.558281"/>
<stop offset="1"/>
</linearGradient>
<linearGradient id="paint8_linear_73_221" x1="419.329" y1="50.9262" x2="425.193" y2="63.8706" gradientUnits="userSpaceOnUse">
<stop stop-color="#D0D0D0"/>
<stop offset="0.558281" stop-color="#EAEAEA"/>
<stop offset="1" stop-color="#6A6A6A"/>
</linearGradient>
<linearGradient id="paint9_linear_73_221" x1="241.143" y1="196.677" x2="348.832" y2="-6.64402" gradientUnits="userSpaceOnUse">
<stop stop-color="#D9D9D9"/>
<stop offset="1" stop-color="#737373"/>
</linearGradient>
<linearGradient id="paint10_linear_73_221" x1="145.765" y1="521.459" x2="162.698" y2="519.87" gradientUnits="userSpaceOnUse">
<stop stop-color="#626262"/>
<stop offset="0.505026" stop-color="#232323"/>
<stop offset="1" stop-color="#C8C8C8"/>
</linearGradient>
<linearGradient id="paint11_linear_73_221" x1="76.7257" y1="257.842" x2="276.468" y2="497.03" gradientUnits="userSpaceOnUse">
<stop stop-color="#D9D9D9"/>
<stop offset="1" stop-color="#737373"/>
</linearGradient>
<linearGradient id="paint12_linear_73_221" x1="138.734" y1="170.187" x2="173.982" y2="461.527" gradientUnits="userSpaceOnUse">
<stop stop-color="#444444"/>
<stop offset="1" stop-color="#D8D8D8"/>
</linearGradient>
<linearGradient id="paint13_linear_73_221" x1="42.7169" y1="141.783" x2="56.8301" y2="150.897" gradientUnits="userSpaceOnUse">
<stop stop-color="#D9D9D9"/>
<stop offset="0.160039" stop-color="#626262"/>
<stop offset="0.330039" stop-color="#D9D9D9"/>
<stop offset="0.480039" stop-color="#626262"/>
<stop offset="0.665039" stop-color="#D9D9D9"/>
<stop offset="0.825039" stop-color="#626262"/>
<stop offset="0.985039" stop-color="#D9D9D9"/>
</linearGradient>
<clipPath id="clip0_73_221">
<rect width="1014" height="614" fill="white"/>
</clipPath>
</defs>
</svg>
